#define arrow_width 8
#define arrow_height 8
static unsigned char arrow_bits[] = {
   0x1f, 0x0f, 0x0f, 0x1f, 0x39, 0x70, 0x20, 0x00};
