#define file_m.xbm_width 16
#define file_m.xbm_height 10
static unsigned char file_m.xbm_bits[] = {
   0xfc, 0x07, 0x02, 0x08, 0x01, 0x10, 0xc1, 0xff, 0xa1, 0xaa, 0x51, 0x55,
   0xa9, 0x2a, 0x55, 0x15, 0xab, 0x0a, 0xff, 0x07};
