#define fmrib_width 64
#define fmrib_height 64
static char fmrib_bits[] = {
 0x00,0x00,0x00,0x00,0x00,0x00,0x00,0x00,0x00,0x00,0x00,0x00,0x00,0x00,0x00,
 0x00,0x00,0x00,0x00,0x00,0x00,0x00,0x00,0x00,0x00,0x00,0x00,0x00,0x00,0x00,
 0x00,0x00,0x00,0x00,0x00,0x00,0x00,0x00,0x00,0x00,0x00,0x00,0x00,0x00,0x01,
 0x00,0x00,0x00,0x00,0x00,0x00,0x00,0x01,0x00,0x00,0x00,0x00,0x00,0x00,0x80,
 0x03,0x00,0x00,0x00,0x00,0x00,0x00,0x80,0x03,0x00,0x00,0x00,0x00,0x00,0x00,
 0x00,0x01,0x00,0x00,0x00,0x00,0x00,0x00,0x00,0x01,0x00,0x00,0x00,0x00,0x00,
 0x00,0x00,0x01,0x00,0x00,0x00,0x00,0x00,0x00,0xf8,0xff,0x07,0x00,0x00,0x00,
 0x00,0x00,0xbe,0xf3,0x1f,0x00,0x00,0x00,0x00,0x80,0x1f,0xff,0x79,0x00,0x00,
 0x00,0x00,0xc0,0x1e,0xf1,0xfb,0x00,0x00,0x00,0x00,0x60,0xf6,0x03,0xcf,0x01,
 0x00,0x00,0x00,0x30,0xe5,0x0f,0x1f,0x07,0x00,0x00,0xe0,0xbf,0x3d,0x1d,0xf6,
 0x0c,0x00,0x00,0xfe,0xfc,0x71,0x13,0x8c,0xff,0x00,0xc0,0x03,0x4e,0x40,0x31,
 0x88,0xbd,0x07,0x60,0x00,0x7e,0x40,0x31,0x18,0x3d,0x0c,0x30,0x00,0x2b,0xd2,
 0x23,0x36,0x7b,0x18,0x70,0x80,0x0f,0x1f,0x31,0x26,0x7a,0x08,0xf0,0xc1,0x5f,
 0x1b,0x33,0xe6,0xf6,0x07,0x60,0xff,0x75,0x1b,0x13,0xac,0xff,0x01,0xc0,0xf0,
 0xff,0x13,0x11,0xff,0xdf,0x01,0x80,0xf9,0xfb,0xff,0xff,0x3f,0xab,0x01,0x00,
 0xfb,0xb1,0x39,0x37,0xb4,0xfd,0x01,0x00,0x7a,0x00,0x60,0x15,0x5c,0x9c,0x01,
 0x00,0x6e,0x04,0xc0,0x15,0x04,0xbe,0x00,0x00,0xfc,0xcb,0x8e,0x13,0xc4,0xf2,
 0x00,0x00,0x7c,0x89,0x81,0x37,0x46,0xdf,0x00,0x00,0xdc,0x09,0x80,0x3f,0x67,
 0xd9,0x00,0x00,0xfe,0xc6,0x07,0xb1,0x65,0x5c,0x00,0x00,0xee,0x7e,0x1c,0xf1,
 0x34,0x78,0x00,0x00,0xfa,0xc2,0x73,0xc9,0x1f,0x6f,0x00,0x00,0xba,0xc2,0x37,
 0x09,0xff,0x79,0x00,0x00,0xfa,0x43,0xe4,0x9f,0x7d,0x3f,0x00,0x00,0x7e,0x37,
 0x86,0x11,0x7b,0x3f,0x00,0x00,0xbc,0xe7,0x8f,0x21,0xf6,0x1f,0x00,0x00,0xf4,
 0x05,0xc0,0x21,0xa6,0x07,0x00,0x00,0x1c,0x0a,0x3c,0x21,0xe6,0x00,0x00,0x00,
 0x3c,0x3f,0x1f,0xb3,0x20,0x00,0x00,0x00,0xf8,0xbf,0xf3,0x9f,0x31,0x00,0x00,
 0x00,0xf0,0xfc,0x30,0xfd,0x1f,0x00,0x00,0x00,0xe0,0x7f,0xbc,0xb9,0x0c,0x00,
 0x00,0x00,0x00,0xc0,0xfb,0x89,0x06,0x00,0x00,0x00,0x00,0x80,0xff,0xc3,0x03,
 0x00,0x00,0x00,0x00,0x00,0xcd,0xff,0x01,0x00,0x00,0x00,0x00,0x00,0x02,0xff,
 0x00,0x00,0x00,0x00,0x00,0x00,0x06,0x01,0x00,0x00,0x00,0x00,0x00,0x00,0x0c,
 0x01,0x00,0x00,0x00,0x00,0x00,0x00,0x18,0x01,0x7c,0x3c,0x06,0x00,0x00,0x00,
 0x10,0x01,0x7e,0x3e,0x06,0x00,0x00,0x00,0x30,0x01,0x06,0x06,0x06,0x00,0x00,
 0x00,0x60,0x01,0x06,0x06,0x06,0x00,0x00,0x00,0xc0,0x01,0x3e,0x3e,0x06,0x00,
 0x00,0x00,0x80,0x01,0x3e,0x7c,0x06,0x00,0x00,0x00,0x80,0x01,0x06,0x60,0x06,
 0x00,0x00,0x00,0x00,0x01,0x06,0x60,0x06,0x00,0x00,0x00,0x00,0x00,0x06,0x7e,
 0x7e,0x00,0x00,0x00,0x00,0x00,0x06,0x3e,0x7c,0x00,0x00,0x00,0x00,0x00,0x00,
 0x00,0x00};
