/* XPM */
static const char *crosshair[] = {
/* columns rows colors chars-per-pixel */
"25 20 2 1",
"  c #0A21FC",
". c none",
/* pixels */
".........................",
"...........   ...........",
"...........   ...........",
"...........   ...........",
"...........   ...........",
"...........   ...........",
"...........   ...........",
"...........   ...........",
"...........   ...........",
"...                   ...",
"...                   ...",
"...                   ...",
"...........   ...........",
"...........   ...........",
"...........   ...........",
"...........   ...........",
"...........   ...........",
"...........   ...........",
"...........   ...........",
"...........   ..........."
};
