/* XPM */
static const char * demean[] = {
"16 13 2 1",
" 	c None",
".	c #000000",
"                ",
"        .     . ",
"        .     . ",
"        .     . ",
"        .     . ",
"        ..   .. ",
"....    ... ... ",
"        . ...  .",
"        .       ",
"        .       ",
"       .        ",
"      .         ",
"                "};
