/* XPM */
static const char * gridseries[] = {
"16 13 2 1",
" 	c None",
".	c #000000",
"                ",
"                ",
"    ..........  ",
"    .  .  .  .  ",
"    .  .  .  .  ",
"    ..........  ",
"    .  .  .  .  ",
"    .  .  .  .  ",
"    ..........  ",
"    .  .  .  .  ",
"    .  .  .  .  ",
"    ..........  ",
"                "};
