/* XPM */
static const char * ortho_xpm[] = {
"16 16 36 1",
" 	c None",
".	c #010101",
"+	c #AAAAAA",
"@	c #121212",
"#	c #191919",
"$	c #000000",
"%	c #101010",
"&	c #292929",
"*	c #0A0A0A",
"=	c #0B0C0F",
"-	c #3F4146",
";	c #44484E",
">	c #12171E",
",	c #3D3F44",
"'	c #484848",
")	c #313846",
"!	c #131314",
"~	c #5A595D",
"{	c #5F6069",
"]	c #191C21",
"^	c #E28214",
"/	c #14C3E2",
"(	c #0A0909",
"_	c #685F5C",
":	c #0A0B0D",
"<	c #161616",
"[	c #0E0E0E",
"}	c #595959",
"|	c #5B5E63",
"1	c #0F131C",
"2	c #101A25",
"3	c #646872",
"4	c #636670",
"5	c #1A1819",
"6	c #1A272F",
"7	c #030302",
"........+.......",
"........+.......",
"...@@#..+$$%&&*$",
"..=--;>>+$$,'')$",
"..=--;>>+$$,'')$",
"..!~~{]]+$$^///$",
"..(^^_::+$$^^^/$",
"..(^^_::+$$^^^/$",
"++++++++++++++++",
"..$@@<..++++++++",
"..$@@<..++++++++",
"..[}}|11++++++++",
"..2334//++++++++",
"..2334//++++++++",
"..5^^^66++++++++",
"..7^^^77++++++++"};
