/* XPM */
static const char *pen_xpm[] = {
/* columns rows colors chars-per-pixel */
"32 32 7 1",
"  c black",
". c #152AF6",
"X c #B06A6A",
"o c #F70C75",
"O c #F6E809",
"+ c #E4ADAD",
"@ c none",
/* pixels */
"@@@@@@@@@@@@@@@@@@@@@@@@@@@@@@@@",
"@@@@@@@@@@@@@@@@@@@@@@@@@@@@@@@@",
"@@@@@@@@@@@@@@@@@@@@@@@@ @@@@@@@",
"@@@@@@@@@@@@@@@@@@@@@@@ X @@@@@@",
"@@@@@@@@@@@@@@@@@@@@@@ XXX @@@@@",
"@@@@@@@@@@@@@@@@@@@@@ XXXXX @@@@",
"@@@@@@@@@@@@@@@@@@@@ XXXXXXX @@@",
"@@@@@@@@@@@@@@@@@@@OXXXXXXXXX @@",
"@@@@@@@@@@@@@@@@@@O OXXXXXXXXX @",
"@@@@@@@@@@@@@@@@@O O OXXXXXXX @@",
"@@@@@@@@@@@@@@@@o O O OXXXXX @@@",
"@@@@@@@@@@@@@@@ooo O O OXXX @@@@",
"@@@@@@@@@@@@@@ooo o O O OX @@@@@",
"@@@@@@@@@@@@@ooo ooo O O O@@@@@@",
"@@@@@@@@@@@@ooo ooooo O O@@@@@@@",
"@@@@@@@@@@@ooo ooooo o O@@@@@@@@",
"@@@@@@@@@@ooo ooooo ooo@@@@@@@@@",
"@@@@@@@@@ooo ooooo ooo@@@@@@@@@@",
"@@@@@@@@ooo ooooo ooo@@@@@@@@@@@",
"@@@@@@@ooo ooooo ooo@@@@@@@@@@@@",
"@@@@@@ooo ooooo ooo@@@@@@@@@@@@@",
"@@@@@ooo ooooo ooo@@@@@@@@@@@@@@",
"@@@@ooo ooooo ooo@@@@@@@@@@@@@@@",
"@@@.oo ooooo ooo@@@@@@@@@@@@@@@@",
"@@+.o ooooo ooo@@@@@@@@@@@@@@@@@",
"@@++.ooooo ooo@@@@@@@@@@@@@@@@@@",
"@@+++.ooo ooo@@@@@@@@@@@@@@@@@@@",
"@@ +++.o ooo@@@@@@@@@@@@@@@@@@@@",
"@@  +++.ooo@@@@@@@@@@@@@@@@@@@@@",
"@@   +++..@@@@@@@@@@@@@@@@@@@@@@",
"@@    +++@@@@@@@@@@@@@@@@@@@@@@@",
"@@@@@@@@@@@@@@@@@@@@@@@@@@@@@@@@"
};
