/* XPM */
static const char * bricon[] = {
"16 28 3 1",
" 	c None",
".	c #000000",
"+	c #040404",
"                ",
"        +       ",
"        +       ",
"    +   +   +   ",
"     +++++++    ",
"     +     +    ",
"     +     +    ",
"  ++++     ++++ ",
"     +     +    ",
"     +     +    ",
"     +++++++    ",
"    +   +   +   ",
"        +       ",
"        +       ",
"                ",
"   + + + + + +  ",
"                ",
"                ",
"      +++++     ",
"     +  ++++    ",
"     +  ++++    ",
"     +  ++++    ",
"     +  ++++    ",
"     +  ++++    ",
"      +++++     ",
"                ",
"                ",
"                "};
