/* XPM */
static const char *crosshair[] = {
"    16    13        5            1",
". c #040404",
"# c #808304",
"a c None",
"b c #f3f704",
"c c #f3f7f3",
"aaaaaaaaaaaaaaaa",
"aaaaaaaaaaaaaaaa",
"aaaaaaaa.aaaaaaa",
"aaaaaaaa.aaaaaaa",
"aaaaaaaa.aaaaaaa",
"aaaaaaaa.aaaaaaa",
"aaaa.........aaa",
"aaaaaaaa.aaaaaaa",
"aaaaaaaa.aaaaaaa",
"aaaaaaaa.aaaaaaa",
"aaaaaaaa.aaaaaaa",
"aaaaaaaaaaaaaaaa",
"aaaaaaaaaaaaaaaa"
};
