/* XPM */
static const char * eraser[] = {
"16 13 2 1",
" 	c None",
".	c #000000",
"                ",
"          .     ",
"         . .    ",
"        .   .   ",
"       .   .    ",
"      .   .     ",
"     .   .      ",
"      . .       ",
"       .        ",
"                ",
"                ",
"                ",
"                "};
