/* XPM */
static const char *info[] = {
"16 13 7 1",
" 	c None",
".	c #000000",
"+	c #0707A0",
"@	c #FFFFFF",
"#	c #F1EAF2",
"$	c #0F0F0F",
"%	c #B2B053",
"                ",
"    ++++++++    ",
"   ++++++++++   ",
"  ++++@@@+++++  ",
" +++++@@@++++++ ",
" ++++++++++++++ ",
" ++++@@@@++++++ ",
" +++++@@@++++++ ",
" +++++@@@++++++ ",
"  +++@@@@@++++  ",
"   ++++++++++   ",
"    ++++++++    ",
"                "};
