/* XPM */
static const char * lightbox_xpm[] = {
"16 16 93 2",
"  	c None",
". 	c #000000",
"+ 	c #AAAAAA",
"@ 	c #040404",
"# 	c #0F0F0F",
"$ 	c #080808",
"% 	c #242424",
"& 	c #1A1A1A",
"* 	c #030303",
"= 	c #343436",
"- 	c #3F4043",
"; 	c #0C0C0D",
"> 	c #2A2B2D",
", 	c #4A4A4A",
"' 	c #2C3037",
") 	c #181818",
"! 	c #5E6065",
"~ 	c #373737",
"{ 	c #535354",
"] 	c #5D5D5D",
"^ 	c #0C0C0C",
"/ 	c #373738",
"( 	c #68686A",
"_ 	c #323437",
": 	c #0A0A0A",
"< 	c #333334",
"[ 	c #1B1B1B",
"} 	c #020202",
"| 	c #2C2E31",
"1 	c #353535",
"2 	c #191B1E",
"3 	c #3B3E43",
"4 	c #131313",
"5 	c #070707",
"6 	c #010101",
"7 	c #121212",
"8 	c #191919",
"9 	c #101010",
"0 	c #292929",
"a 	c #1E1F25",
"b 	c #303030",
"c 	c #2F343E",
"d 	c #0B0C0F",
"e 	c #3F4146",
"f 	c #44484E",
"g 	c #12171E",
"h 	c #3D3F44",
"i 	c #484848",
"j 	c #313846",
"k 	c #282829",
"l 	c #626363",
"m 	c #494B55",
"n 	c #131314",
"o 	c #5A595D",
"p 	c #5F6069",
"q 	c #191C21",
"r 	c #E28214",
"s 	c #14C3E2",
"t 	c #232223",
"u 	c #626671",
"v 	c #494445",
"w 	c #0A0909",
"x 	c #685F5C",
"y 	c #0A0B0D",
"z 	c #050505",
"A 	c #161616",
"B 	c #090909",
"C 	c #232323",
"D 	c #060606",
"E 	c #2A2A2A",
"F 	c #555555",
"G 	c #47494E",
"H 	c #0E0E0E",
"I 	c #595959",
"J 	c #5B5E63",
"K 	c #0F131C",
"L 	c #494949",
"M 	c #626262",
"N 	c #353E48",
"O 	c #5D5959",
"P 	c #101A25",
"Q 	c #646872",
"R 	c #636670",
"S 	c #6D6B6B",
"T 	c #635B58",
"U 	c #1A1819",
"V 	c #1A272F",
"W 	c #776F6F",
"X 	c #435057",
"Y 	c #16120E",
"Z 	c #231C15",
"` 	c #030302",
" .	c #161009",
". . . . . + . . . . + . . . . . ",
". . . . . + . . . . + . @ # @ . ",
". $ % & . + * = - ; + . > , ' . ",
". ) ! ~ . + @ { ] ^ + . / ( _ . ",
". : < [ . + } | 1 * + . 2 3 4 . ",
"+ + + + + + + + + + + + + + + + ",
". . # 5 . + 6 7 8 6 + . 9 0 : . ",
". a b c 6 + d e f g + . h i j . ",
". k l m * + n o p q + . r s s . ",
". t u v . + w r x y + . r r s . ",
"+ + + + + + + + + + + + + + + + ",
". } 9 z . + . 7 A 6 + . B C D . ",
". E F G . + H I J K + . L M N . ",
". s O s * + P Q R s + . s S s . ",
". r r T } + U r r V + } r W X . ",
". Y r Z . + ` r r ` + . r r  .. "};
