/* XPM */
static const char * padlock[] = {
"16 13 4 1",
" 	c None",
".	c #000000",
"+	c #DDDDDB",
"@	c #020202",
"                ",
"      ....      ",
"     ..  ..     ",
"    ..    ..    ",
"    .      .    ",
"    ........    ",
"    .++++++.    ",
"    .++@@++.    ",
"    .++++++.    ",
"    .++++++.    ",
"    ........    ",
"                ",
"                "};
