/* XPM */
static const char * plotbrowse[] = {
"16 13 2 1",
" 	c None",
".	c #000000",
"                ",
"    .           ",
"    .        .  ",
"  .....      .  ",
"    .        .. ",
"    .    .  . . ",
"         .. .  .",
"         . .    ",
"       . .      ",
"    . . .       ",
"   . .          ",
"  .             ",
"                "};
