/* XPM */
static const char *uparrow[] = {
"    16    13        5            1",
". c #040404",
"# c #808304",
"a c None",
"b c #f3f704",
"c c #f3f7f3",
"aaaaaaaaaaaaaaaa",
"aaaaaaaaaaaaaaaa",
"aaaaaaaa.aaaaaaa",
"aaaaaaa...aaaaaa",
"aaaaaa.....aaaaa",
"aaaaa.......aaaa",
"aaaa.........aaa",
"aaaaaaa...aaaaaa",
"aaaaaaa...aaaaaa",
"aaaaaaa...aaaaaa",
"aaaaaaa...aaaaaa",
"aaaaaaaaaaaaaaaa",
"aaaaaaaaaaaaaaaa"
};
